<svg width="12" height="14" viewBox="0 0 12 14" fill="none" xmlns="http://www.w3.org/2000/svg">
<path d="M10.7211 1.03748V5.40882C10.7212 5.43758 10.7141 5.46591 10.7005 5.49125C10.6869 5.51659 10.6672 5.53813 10.6431 5.55393C10.6191 5.56973 10.5915 5.57928 10.5628 5.58172C10.5342 5.58416 10.5053 5.57941 10.479 5.5679L9.46915 5.10449C9.43701 5.09736 9.40757 5.08121 9.38429 5.05793C9.36101 5.03465 9.34486 5.00521 9.33773 4.97307L8.64607 0.892234C8.64189 0.866729 8.64349 0.840613 8.65074 0.815807C8.658 0.791001 8.67071 0.768136 8.68797 0.748893C8.70522 0.729651 8.72656 0.71452 8.75043 0.704614C8.7743 0.694707 8.80009 0.690278 8.8259 0.69165H10.3752C10.467 0.69165 10.5549 0.728086 10.6198 0.792943C10.6846 0.857799 10.7211 0.945763 10.7211 1.03748Z" fill="#4640DE"/>
<path d="M8.56972 4.3852C8.57506 4.41619 8.57186 4.44805 8.56044 4.47735C8.54903 4.50666 8.52984 4.53229 8.50494 4.5515C8.48004 4.57071 8.45037 4.58277 8.41913 4.58637C8.38789 4.58997 8.35625 4.58499 8.32764 4.57195L3.61047 2.3932C3.15448 2.18494 2.65926 2.07647 2.15797 2.07503H0.691634H0.442634L0.345801 1.6047C0.329632 1.51485 0.349644 1.42226 0.401472 1.34711C0.4533 1.27196 0.53274 1.22035 0.622467 1.20353L7.4423 3.04691e-05H7.50455C7.58563 -0.00105625 7.6644 0.0269579 7.72659 0.0789891C7.78877 0.13102 7.83024 0.20362 7.84347 0.283614L8.56972 4.3852Z" fill="#B4B1FF"/>
<path d="M10.956 6.54322L3.32 3.02264C2.95533 2.85552 2.55914 2.76826 2.158 2.76672H0.691667C0.508225 2.76672 0.332297 2.8396 0.202585 2.96931C0.0728718 3.09902 0 3.27495 0 3.45839V13.1417C0 13.3252 0.0728718 13.5011 0.202585 13.6308C0.332297 13.7605 0.508225 13.8334 0.691667 13.8334H11.0667C11.2501 13.8334 11.426 13.7605 11.5558 13.6308C11.6855 13.5011 11.7583 13.3252 11.7583 13.1417V7.80206C11.759 7.53747 11.6838 7.27825 11.5415 7.05513C11.3993 6.83201 11.1961 6.65435 10.956 6.54322ZM8.41067 8.75656L3.21625 6.39106C3.18421 6.37711 3.15714 6.35379 3.13862 6.32415C3.1201 6.29452 3.111 6.25997 3.1125 6.22506V5.84464C3.1124 5.81588 3.11948 5.78754 3.13309 5.76221C3.1467 5.73687 3.16642 5.71533 3.19045 5.69953C3.21449 5.68373 3.24209 5.67418 3.27075 5.67174C3.29941 5.6693 3.32822 5.67405 3.35458 5.68556L8.549 8.04414C8.57993 8.05764 8.60624 8.0799 8.62467 8.10816C8.64311 8.13643 8.65287 8.16948 8.65275 8.20322V8.59056C8.65404 8.6199 8.64784 8.64909 8.63472 8.67537C8.62161 8.70164 8.60201 8.72415 8.57779 8.74076C8.55357 8.75737 8.52552 8.76754 8.49628 8.7703C8.46704 8.77306 8.43758 8.76833 8.41067 8.75656Z" fill="#B4B1FF"/>
</svg>
