<svg width="30" height="30" viewBox="0 0 30 30" fill="none" xmlns="http://www.w3.org/2000/svg">
<g clip-path="url(#clip0)">
<path d="M2.31 13.11L4.35 15.3L3.21 18.39L6.36 19.59L6.81 22.8L10.47 22.59L12.06 25.5301L15.15 23.58L17.91 25.3201L19.71 22.56L22.8 23.01L23.49 19.71L26.7 18.51L25.56 15.36L27.96 12.87L25.5 10.56L26.76 7.26005L23.22 6.21005L23.07 3.06005L19.92 3.45005L17.76 0.300049C17.76 0.300049 15.66 2.04005 15.45 2.10005C15.24 2.16005 12.15 0.750049 12.15 0.750049L10.29 3.51005L6.99 2.97005L6.6 6.51005L3.24 7.65005L4.83 11.01L2.31 13.11Z" fill="#95CE5A"/>
<path d="M0.600021 25.9801L5.61002 25.08L6.51002 29.6101C6.54002 29.82 6.69002 29.9701 6.90002 30.0001C6.93002 30.0001 6.96002 30.0001 6.99002 30.0001C7.17002 30.0001 7.32002 29.9101 7.41002 29.7901L10.92 24.5401L11.67 25.7701C11.73 25.8901 11.85 25.98 12 26.01C12.03 26.01 12.09 26.01 12.12 26.01C12.21 26.01 12.3 25.9801 12.39 25.9201L15 24.18L17.64 25.9201C17.88 26.0701 18.18 26.0101 18.33 25.7701C18.33 25.7701 18.33 25.7701 18.33 25.7401L19.08 24.51L22.59 29.76C22.68 29.91 22.83 29.9701 23.01 29.9701C23.04 29.9701 23.07 29.9701 23.1 29.9701C23.31 29.9401 23.46 29.7901 23.49 29.58L24.39 25.0201L29.46 25.5001C29.73 25.5301 29.97 25.3201 30 25.0501C30 24.93 29.97 24.8101 29.91 24.7201L26.25 19.23L26.88 19.0201C27.15 18.9301 27.3 18.6601 27.21 18.3901V18.3601L26.1 15.4801L28.38 13.3501C28.59 13.1701 28.59 12.8401 28.41 12.6301L28.38 12.6001L26.1 10.5001L27.21 7.62005C27.3 7.35005 27.18 7.08005 26.94 6.96005H26.91L23.91 6.03005L23.64 2.94005C23.64 2.79005 23.55 2.67005 23.46 2.58005C23.34 2.49005 23.22 2.46005 23.07 2.49005L19.92 2.91005L18.33 0.24005C18.18 5.0379e-05 17.88 -0.0599496 17.64 0.0600504C17.64 0.0600504 17.64 0.0600504 17.61 0.0600504L15 1.80005L12.36 0.0600504C12.12 -0.0899496 11.82 -0.0299496 11.67 0.21005C11.67 0.21005 11.67 0.21005 11.67 0.24005L10.08 2.91005L6.93002 2.49005C6.66002 2.46005 6.39002 2.64005 6.36002 2.91005V2.94005L6.09002 6.03005L3.09002 6.96005C2.82002 7.05005 2.67002 7.32005 2.76002 7.59005V7.62005L3.90002 10.5001L1.62002 12.6301C1.41002 12.8101 1.41002 13.1401 1.59002 13.3501L1.62002 13.3801L3.90002 15.5101L2.79002 18.3901C2.70002 18.6601 2.82002 18.9301 3.06002 19.0501H3.09002L3.75002 19.26L0.0600208 25.26C-0.0899791 25.5 2.08486e-05 25.8001 0.210021 25.9501C0.330021 25.9801 0.480021 26.01 0.600021 25.9801ZM28.5 24.4201L24.03 24.0001C23.79 23.9701 23.55 24.1501 23.49 24.3901L22.74 28.2001L19.65 23.58L19.95 23.1L23.07 23.5201C23.34 23.5501 23.61 23.3701 23.64 23.1V23.0701L23.91 19.98L25.29 19.56L28.5 24.4201ZM2.70002 12.9901L4.83002 11.0101C4.98002 10.8601 5.04002 10.6501 4.95002 10.4701L3.90002 7.77005L6.72002 6.90005C6.90002 6.84005 7.05002 6.66005 7.08002 6.48005L7.32002 3.60005L10.26 4.02005C10.47 4.05005 10.65 3.96005 10.77 3.78005L12.27 1.26005L14.73 2.88005C14.91 3.00005 15.12 3.00005 15.27 2.88005L17.73 1.20005L19.23 3.72005C19.32 3.90005 19.53 3.99005 19.74 3.96005L22.68 3.54005L22.92 6.42005C22.95 6.63005 23.07 6.78005 23.28 6.84005L26.1 7.71005L25.05 10.4101C24.99 10.5901 25.02 10.8301 25.17 10.9501L27.3 12.9301L25.17 15.0001C25.02 15.1501 24.96 15.3601 25.05 15.5401L26.1 18.2401L23.28 19.1101C23.1 19.1701 22.95 19.35 22.92 19.5301L22.68 22.41L19.74 22.0201C19.53 21.9901 19.35 22.08 19.23 22.26L17.73 24.7801L15.27 23.16C15.09 23.0401 14.88 23.0401 14.73 23.16L12.27 24.7801L10.77 22.26C10.68 22.1101 10.53 22.0201 10.35 22.0201C10.32 22.0201 10.29 22.0201 10.29 22.0201L7.35002 22.4401L7.11002 19.56C7.08002 19.35 6.96002 19.2001 6.75002 19.1401L3.90002 18.2401L4.95002 15.5401C5.01002 15.3601 4.98002 15.1201 4.83002 15.0001L2.70002 12.9901ZM4.74002 19.56L6.09002 19.98L6.36002 23.0701C6.36002 23.2201 6.45002 23.34 6.54002 23.43C6.66002 23.5201 6.78002 23.5501 6.93002 23.5201L10.05 23.1L10.35 23.58L7.26002 28.2301L6.51002 24.4201C6.45002 24.1501 6.21002 23.9701 5.94002 24.0301L1.50002 24.81L4.74002 19.56Z" fill="#333E50"/>
<path d="M21.12 17.37H8.97002C8.34002 17.37 7.83002 16.86 7.83002 16.23V9.90001C7.83002 9.27001 8.34002 8.76001 8.97002 8.76001H21.12C21.75 8.76001 22.26 9.27001 22.26 9.90001V16.2C22.29 16.86 21.78 17.37 21.12 17.37Z" fill="white"/>
<path d="M22.17 10.9202H7.85999V12.2702H22.17V10.9202Z" fill="#C3E2FC"/>
<path d="M13.53 15.1802H10.05C9.81004 15.1802 9.60004 15.3902 9.60004 15.6302C9.60004 15.8702 9.81004 16.0802 10.05 16.0802H13.53C13.77 16.0802 13.98 15.8702 13.98 15.6302C13.98 15.3902 13.77 15.1802 13.53 15.1802Z" fill="#333E50"/>
<path d="M21.24 8.37012H8.76001C7.92001 8.37012 7.26001 9.06012 7.26001 9.87012V16.5301C7.26001 17.3701 7.95001 18.0301 8.76001 18.0301H14.7V18.0001H21.21C22.05 18.0001 22.71 17.3101 22.71 16.5001L22.74 11.5201V9.87012C22.74 9.03012 22.08 8.37012 21.24 8.37012ZM21.84 12.6901V16.5001C21.84 16.8601 21.57 17.1301 21.21 17.1301H8.76001C8.40001 17.1301 8.13001 16.8601 8.13001 16.5001V12.6901H21.84ZM21.84 11.1301V11.8201H8.13001V11.1301H21.84ZM21.87 9.87012V10.2601H8.13001V9.87012C8.13001 9.51012 8.40001 9.24012 8.76001 9.24012H21.24C21.6 9.24012 21.87 9.51012 21.87 9.87012Z" fill="#333E50"/>
<path d="M18.87 15.7502H20.01C20.28 15.7502 20.49 15.5102 20.49 15.2702V14.7002C20.49 14.4302 20.25 14.2202 20.01 14.2202H18.87C18.6 14.2202 18.39 14.4602 18.39 14.7002V15.2402C18.36 15.5102 18.6 15.7502 18.87 15.7502Z" fill="#95CE5A"/>
<path d="M20.01 13.77H18.87C18.39 13.77 18 14.16 18 14.64V15.18C18 15.66 18.39 16.05 18.87 16.05H20.01C20.49 16.05 20.88 15.66 20.88 15.18V14.64C20.88 14.19 20.46 13.77 20.01 13.77ZM20.16 14.7V15.24C20.16 15.33 20.1 15.39 20.01 15.39H18.87C18.78 15.39 18.72 15.33 18.72 15.24V14.7C18.72 14.61 18.78 14.55 18.87 14.55H20.01C20.1 14.55 20.16 14.61 20.16 14.7Z" fill="#333E50"/>
<path d="M11.85 13.7102H10.05C9.81004 13.7102 9.60004 13.9202 9.60004 14.1602C9.60004 14.4002 9.81004 14.6102 10.05 14.6102H11.85C12.09 14.6102 12.3 14.4002 12.3 14.1602C12.3 13.9202 12.12 13.7102 11.85 13.7102Z" fill="#333E50"/>
</g>
<defs>
<clipPath id="clip0">
<rect width="30" height="30" fill="white"/>
</clipPath>
</defs>
</svg>
