<svg width="30" height="30" viewBox="0 0 30 30" fill="none" xmlns="http://www.w3.org/2000/svg">
<g clip-path="url(#clip0)">
<path d="M4.62004 11.4299H25.05C26.1 11.4299 27 12.3299 27 13.3799V27.0899C27 28.1399 26.1 29.0399 25.05 29.0399H4.62004C3.57004 29.0399 2.67004 28.1399 2.67004 27.0899V13.4399C2.67004 12.3299 3.54004 11.4299 4.62004 11.4299Z" fill="#C3E2FC"/>
<path d="M4.62004 11.4299H25.05C26.1 11.4299 27 12.3299 27 13.3799V27.0899C27 28.1399 26.1 29.0399 25.05 29.0399H4.62004C3.57004 29.0399 2.67004 28.1399 2.67004 27.0899V13.4399C2.67004 12.3299 3.54004 11.4299 4.62004 11.4299Z" fill="white"/>
<path d="M27.0601 25.59H19.7401C17.9101 25.59 16.4401 24.12 16.4401 22.29V20.28H27.0601V25.59Z" fill="#C3E2FC"/>
<path d="M27 24.06H19.8C18.45 24.06 17.37 23.01 17.37 21.63V19.2C17.37 17.85 18.42 16.77 19.8 16.77H27.06C28.41 16.77 29.49 17.82 29.49 19.2V21.63C29.46 22.95 28.35 24.06 27 24.06Z" fill="white"/>
<path d="M23.22 9.17993H2.67004V11.5499H23.22V9.17993Z" fill="#C3E2FC"/>
<path d="M8.46003 11.1301L12.48 5.64014L16.41 8.01014L20.13 11.4901L8.16003 11.7301L8.46003 11.1301Z" fill="#95CE5A"/>
<path d="M12.81 5.04004C12.69 5.04004 12.57 5.04004 12.45 5.10004C11.91 5.22004 11.55 5.58004 11.28 5.94004L7.86002 10.95H5.19002C4.95002 10.95 4.77002 11.07 4.65002 11.25C4.53002 11.43 4.53002 11.67 4.65002 11.85C4.77002 12.03 4.95002 12.15 5.19002 12.15H25.26C25.92 12.15 26.43 12.69 26.43 13.32V14.49C26.43 14.73 26.55 14.91 26.73 15.03C26.91 15.15 27.15 15.15 27.33 15.03C27.51 14.91 27.63 14.73 27.63 14.49V13.32C27.63 12.03 26.58 10.95 25.26 10.95H24.09C24.09 9.66004 23.04 8.58004 21.72 8.58004H20.82C20.58 8.58004 20.4 8.70004 20.28 8.88004C20.16 9.06004 20.16 9.30004 20.28 9.48004C20.4 9.66004 20.58 9.78004 20.82 9.78004H21.72C22.38 9.78004 22.89 10.32 22.89 10.95H20.76L13.89 5.40004C13.59 5.16004 13.17 5.04004 12.81 5.04004ZM12.93 6.24004C12.99 6.24004 13.05 6.30004 13.17 6.36004L18.9 10.95H9.27002L12.3 6.60004C12.42 6.42004 12.6 6.30004 12.72 6.30004C12.81 6.24004 12.87 6.24004 12.93 6.24004ZM4.02002 8.61004C2.73002 8.61004 1.65002 9.66004 1.65002 10.98V27.51C1.65002 28.8 2.70002 29.88 4.02002 29.88H25.26C26.55 29.88 27.63 28.83 27.63 27.51V26.34C27.63 26.1 27.51 25.92 27.33 25.8C27.15 25.68 26.91 25.68 26.73 25.8C26.55 25.92 26.43 26.1 26.43 26.34V27.51C26.43 28.17 25.89 28.68 25.26 28.68H4.02002C3.36002 28.68 2.85002 28.14 2.85002 27.51V10.95C2.85002 10.29 3.39002 9.78004 4.02002 9.78004H6.96002C7.20003 9.78004 7.38002 9.66004 7.50002 9.48004C7.62002 9.30004 7.62002 9.06004 7.50002 8.88004C7.38002 8.70004 7.20003 8.58004 6.96002 8.58004H4.02002V8.61004ZM20.55 16.26C19.08 16.26 17.73 17.04 16.95 18.33C16.17 19.62 16.23 21.15 16.95 22.47C17.67 23.76 19.08 24.54 20.55 24.54H27.63C28.92 24.54 30 23.49 30 22.17V18.63C30 17.34 28.95 16.26 27.63 16.26H20.55ZM20.55 17.46H27.63C28.29 17.46 28.8 18 28.8 18.63V22.17C28.8 22.83 28.26 23.34 27.63 23.34H20.55C19.5 23.34 18.54 22.74 18 21.87C17.46 20.97 17.46 19.8 18 18.93C18.54 18.03 19.5 17.46 20.55 17.46ZM20.55 18.63C19.62 18.63 18.78 19.47 18.78 20.4C18.78 21.33 19.62 22.17 20.55 22.17C21.48 22.17 22.32 21.33 22.32 20.4C22.32 19.47 21.51 18.63 20.55 18.63ZM20.55 19.8C20.91 19.8 21.15 20.04 21.15 20.4C21.15 20.76 20.91 21 20.55 21C20.19 21 19.95 20.76 19.95 20.4C19.95 20.04 20.19 19.8 20.55 19.8Z" fill="#333E50"/>
<path d="M8.67002 17.7902L8.55002 23.1002L7.08002 23.2802L9.84002 26.9402L12.57 23.5502L10.92 23.2202L10.98 17.7002L8.67002 17.7902Z" fill="#95CE5A"/>
<path d="M13.35 23.0101C13.26 22.8001 13.05 22.6801 12.84 22.6801H11.88C11.7 22.6801 11.55 22.5301 11.55 22.3501V17.6401C11.55 17.3101 11.28 17.0701 10.98 17.0701H8.76001C8.43001 17.0701 8.19 17.3401 8.19 17.6401V22.3201C8.19 22.5001 8.04001 22.6501 7.86001 22.6501H6.87001C6.66001 22.6501 6.45001 22.7701 6.36001 22.9801C6.27001 23.1901 6.27001 23.4001 6.42001 23.5801L9.42 27.4801C9.54 27.6301 9.69001 27.7201 9.87001 27.7201C10.05 27.7201 10.23 27.6301 10.32 27.4801L13.32 23.5801C13.44 23.4301 13.47 23.1901 13.35 23.0101ZM11.1 23.7001H11.25C11.37 23.7001 11.49 23.7601 11.55 23.8801C11.61 24.0001 11.61 24.1201 11.52 24.2401L10.11 26.0701C9.99001 26.2501 9.69 26.2501 9.57 26.0701L8.16001 24.2401C8.10001 24.1501 8.10001 24.0001 8.16001 23.8801C8.22001 23.7601 8.34001 23.7001 8.46001 23.7001H8.64C8.97 23.7001 9.21001 23.4301 9.21001 23.1301V18.4501C9.21001 18.2701 9.36 18.1201 9.54 18.1201H10.17C10.35 18.1201 10.5 18.2701 10.5 18.4501V23.1301C10.53 23.4301 10.77 23.7001 11.1 23.7001Z" fill="#333E50"/>
<path d="M11.1 15.3901H8.67003C8.40003 15.3901 8.16003 15.6301 8.16003 15.9001C8.16003 16.1701 8.40003 16.4101 8.67003 16.4101H11.1C11.37 16.4101 11.61 16.1701 11.61 15.9001C11.61 15.6301 11.37 15.3901 11.1 15.3901Z" fill="#333E50"/>
<path d="M11.1 13.8601H8.67003C8.40003 13.8601 8.16003 14.1001 8.16003 14.3701C8.16003 14.6401 8.40003 14.8801 8.67003 14.8801H11.1C11.37 14.8801 11.61 14.6401 11.61 14.3701C11.61 14.1001 11.37 13.8601 11.1 13.8601Z" fill="#333E50"/>
<path d="M21.5399 5.82011C23.0477 5.82011 24.2699 4.59784 24.2699 3.09011C24.2699 1.58237 23.0477 0.360107 21.5399 0.360107C20.0322 0.360107 18.8099 1.58237 18.8099 3.09011C18.8099 4.59784 20.0322 5.82011 21.5399 5.82011Z" fill="#C3E2FC"/>
<path d="M21.48 -0.149902C19.71 -0.149902 18.24 1.2901 18.24 3.0901C18.24 4.8901 19.68 6.3301 21.48 6.3301C23.25 6.3301 24.72 4.8901 24.72 3.0901C24.72 1.2901 23.28 -0.149902 21.48 -0.149902ZM23.73 3.0901C23.73 4.3201 22.71 5.3401 21.48 5.3401C20.25 5.3401 19.23 4.3201 19.23 3.0901C19.23 1.8601 20.25 0.840098 21.48 0.840098C22.71 0.840098 23.73 1.8601 23.73 3.0901Z" fill="#333E50"/>
</g>
<defs>
<clipPath id="clip0">
<rect width="30" height="30" fill="white"/>
</clipPath>
</defs>
</svg>
