<svg width="30" height="30" viewBox="0 0 30 30" fill="none" xmlns="http://www.w3.org/2000/svg">
<path d="M6.02997 19.47H0.719971V26.73H6.02997V19.47Z" fill="#95CE5A"/>
<path d="M3.45003 22.2599C3.74827 22.2599 3.99003 22.0182 3.99003 21.7199C3.99003 21.4217 3.74827 21.1799 3.45003 21.1799C3.1518 21.1799 2.91003 21.4217 2.91003 21.7199C2.91003 22.0182 3.1518 22.2599 3.45003 22.2599Z" fill="white"/>
<path d="M23.7 25.65C23.64 25.05 23.28 24.57 22.74 24.33C21.27 23.7 18.81 24.24 17.88 24.48C17.58 23.52 16.08 22.83 15.42 22.59C13.98 22.08 11.46 20.04 11.46 20.04C10.5 19.05 8.97 18.78 6.87 19.29C6.87 19.14 6.81 19.02 6.72 18.93C6.6 18.81 6.48 18.78 6.33 18.78H0.6C0.42 18.78 0.3 18.84 0.21 18.93C0.09 19.02 0 19.17 0 19.35V26.61C0 26.91 0.21 27.15 0.51 27.18H6.3C6.63 27.18 6.87 26.94 6.87 26.61V26.37C8.73 27.06 10.92 28.17 11.67 28.56C11.79 28.62 11.88 28.65 11.91 28.68C12.6 29.07 13.32 29.34 14.1 29.46C14.52 29.55 14.94 29.58 15.33 29.58C16.35 29.58 17.22 29.37 17.88 29.16C18.3 29.04 18.75 28.92 19.2 28.77C20.61 28.38 22.05 27.99 22.98 27.3C23.49 26.97 23.76 26.34 23.7 25.65ZM13.95 24.63C13.11 23.94 12.03 23.52 11.79 23.46C11.52 23.37 11.19 23.55 11.07 23.82C10.98 24.09 11.13 24.42 11.43 24.54C11.43 24.54 12.48 24.87 13.2 25.5C14.55 26.61 16.17 26.73 17.49 25.83C18.39 25.53 21.09 24.87 22.32 25.41C22.5 25.5 22.56 25.68 22.59 25.83C22.59 26.01 22.53 26.25 22.32 26.4C21.57 26.94 20.25 27.3 18.99 27.66C18.48 27.81 17.97 27.93 17.52 28.08C16.2 28.5 14.25 28.77 12.45 27.69C12.42 27.69 12.33 27.63 12.18 27.54C11.37 27.12 8.91 25.83 6.9 25.17V20.52C8.7 20.01 9.99 20.16 10.71 20.91L10.77 20.97C11.79 21.81 13.74 23.25 15.06 23.7C15.72 23.97 16.71 24.51 16.8 24.84C16.8 24.87 16.8 24.87 16.8 24.9C15.93 25.5 14.88 25.41 13.95 24.63ZM5.73 19.95V26.04H1.14V19.95H5.73Z" fill="#333E50"/>
<path d="M3.69001 20.5499C3.03001 20.4299 2.40001 20.8799 2.28001 21.5399C2.16001 22.1999 2.61001 22.8299 3.27001 22.9499C3.93001 23.0699 4.56001 22.6199 4.68001 21.9599C4.77001 21.2999 4.32001 20.6699 3.69001 20.5499ZM3.42001 22.1099C3.21001 22.0799 3.09001 21.8699 3.12001 21.6599C3.15001 21.4499 3.36001 21.2999 3.57001 21.3599C3.78001 21.3899 3.93001 21.5999 3.87001 21.8099C3.78001 21.9899 3.63001 22.1399 3.42001 22.1099Z" fill="#333E50"/>
<path fill-rule="evenodd" clip-rule="evenodd" d="M17.1 6.11499C15.741 6.11499 14.635 7.22095 14.635 8.57999C14.635 9.93903 15.741 11.045 17.1 11.045C18.459 11.045 19.565 9.93903 19.565 8.57999C19.565 7.22095 18.459 6.11499 17.1 6.11499ZM15.695 8.57999C15.695 7.83903 16.299 7.23499 17.04 7.23499C17.781 7.23499 18.385 7.83903 18.385 8.57999C18.385 9.32095 17.781 9.92499 17.04 9.92499C16.3274 9.92499 15.695 9.31931 15.695 8.57999ZM23.8184 7.17158C23.5959 6.94911 23.2426 6.93523 23.0379 7.17533L15.6916 14.5216C15.469 14.7442 15.4553 15.098 15.696 15.3026C15.7437 15.3484 15.8126 15.3848 15.8786 15.4095C15.9487 15.4358 16.0313 15.455 16.11 15.455C16.2432 15.455 16.354 15.3964 16.4462 15.3476C16.4634 15.3385 16.48 15.3298 16.4959 15.3218L16.5141 15.3127L23.8572 7.96961L23.864 7.95931C24.0124 7.73677 24.0141 7.40564 23.8261 7.17995L23.8224 7.17559L23.8184 7.17158ZM22.41 11.425C21.051 11.425 19.945 12.531 19.945 13.89C19.945 15.249 21.051 16.355 22.41 16.355C23.769 16.355 24.875 15.249 24.875 13.89C24.875 12.532 23.8001 11.425 22.41 11.425ZM21.065 13.95C21.065 13.209 21.669 12.605 22.41 12.605C23.151 12.605 23.755 13.209 23.755 13.95H23.7549L23.7551 13.9548C23.7822 14.6594 23.1537 15.295 22.41 15.295C21.669 15.295 21.065 14.691 21.065 13.95Z" fill="#333E50"/>
<path d="M19.74 21.48C14.1 21.48 9.47998 16.89 9.47998 11.22C9.47998 5.54999 14.1 0.98999 19.74 0.98999C25.38 0.98999 30 5.57999 30 11.25C30 16.92 25.41 21.48 19.74 21.48ZM19.74 2.18999C14.76 2.18999 10.68 6.23999 10.68 11.25C10.68 16.23 14.73 20.31 19.74 20.31C24.75 20.31 28.8 16.23 28.8 11.25C28.8 6.23999 24.75 2.18999 19.74 2.18999Z" fill="#333E50"/>
</svg>
