<svg width="30" height="30" viewBox="0 0 30 30" fill="none" xmlns="http://www.w3.org/2000/svg">
<g clip-path="url(#clip0)">
<path d="M4.38002 15.0601H28.38L29.34 16.8601L28.2 17.8801L6.60002 17.8201L3.90002 15.2401L4.38002 15.0601Z" fill="#C3E2FC"/>
<path d="M8.51995 16.2C9.18269 16.2 9.71995 15.6628 9.71995 15C9.71995 14.3373 9.18269 13.8 8.51995 13.8C7.8572 13.8 7.31995 14.3373 7.31995 15C7.31995 15.6628 7.8572 16.2 8.51995 16.2Z" fill="white"/>
<path d="M13.44 16.2C14.1027 16.2 14.64 15.6628 14.64 15C14.64 14.3373 14.1027 13.8 13.44 13.8C12.7772 13.8 12.24 14.3373 12.24 15C12.24 15.6628 12.7772 16.2 13.44 16.2Z" fill="white"/>
<path d="M0.900024 9.59985H3.00002L6.48002 11.9399L2.58002 11.9999L0.900024 9.59985Z" fill="#95CE5A"/>
<path d="M18.48 16.2C19.1428 16.2 19.68 15.6628 19.68 15C19.68 14.3373 19.1428 13.8 18.48 13.8C17.8173 13.8 17.28 14.3373 17.28 15C17.28 15.6628 17.8173 16.2 18.48 16.2Z" fill="white"/>
<path d="M0.960024 28.14L0.900024 29.46L12.36 29.4L11.82 27.24L9.18003 27L7.02002 24.96L3.78002 25.86L3.30002 27L1.56002 26.88L0.960024 28.14Z" fill="#C3E2FC"/>
<path d="M17.8799 3.89991L17.8199 5.21991L29.2799 5.15991L28.7399 2.93991L26.0399 2.75991L23.9399 0.659912L20.6399 1.55991L20.2199 2.75991L18.4799 2.63991L17.8799 3.89991Z" fill="#C3E2FC"/>
<path d="M0.24 9.06C0 9.18 -0.06 9.48 0.06 9.72L4.14 16.62C4.8 17.76 6 18.48 7.32 18.48H16.38L11.1 24.66C11.04 24.78 10.98 24.84 10.98 24.96C10.98 25.26 11.22 25.44 11.46 25.44H15C15.12 25.44 15.24 25.38 15.36 25.32L22.74 18.48H28.08C28.62 18.48 29.16 18.24 29.52 17.76C29.88 17.34 29.94 16.74 29.82 16.2C29.04 13.38 26.46 11.46 23.58 11.46H21.78L14.34 4.62C14.22 4.56 14.1 4.5 13.98 4.5H10.5C10.38 4.5 10.26 4.56 10.2 4.62C10.02 4.8 9.96 5.1 10.14 5.34L15.42 11.52H7.14L3.24 9.12C3.18 9 3.12 9 3 9H0.48C0.42 9 0.3 9 0.24 9.06ZM20.22 11.52H16.74L11.58 5.52H13.8L20.22 11.52ZM23.52 12.48C25.02 12.48 26.52 13.14 27.54 14.22C27.54 14.28 27.48 14.34 27.48 14.4C27.42 14.46 27.42 14.52 27.36 14.52L27.3 14.58C27.3 14.64 27.24 14.64 27.18 14.64L27.12 14.7C27.06 14.7 27.06 14.76 27 14.76C27 14.76 26.94 14.76 26.94 14.82C26.88 14.82 26.88 14.88 26.82 14.88H26.76C26.7 14.88 26.7 14.88 26.64 14.94H26.58C26.52 14.94 26.46 14.94 26.4 14.94H24.6C23.88 14.94 23.34 14.4 23.34 13.68V12.42H23.52V12.48ZM17.76 18.48H21.24L14.82 24.48H12.6L17.76 18.48ZM2.88 12.48H22.38V13.74C22.38 15 23.4 15.96 24.66 16.02H26.4C26.52 16.02 26.64 16.02 26.76 15.96H26.82C26.94 15.96 27 15.9 27.12 15.9C27.12 15.9 27.12 15.9 27.18 15.9C27.3 15.84 27.36 15.84 27.48 15.78C27.48 15.78 27.54 15.78 27.54 15.72C27.6 15.66 27.72 15.6 27.78 15.6C27.78 15.6 27.84 15.6 27.84 15.54C27.9 15.48 28.02 15.42 28.08 15.3L28.14 15.24C28.14 15.18 28.2 15.18 28.2 15.12C28.5 15.54 28.68 16.02 28.8 16.56C28.86 16.8 28.8 17.04 28.68 17.22C28.5 17.4 28.26 17.52 28.02 17.52H7.32C6.36 17.52 5.46 16.98 4.98 16.2L2.88 12.48ZM1.38 10.02H2.88L5.28 11.52H2.28L1.38 10.02Z" fill="#333E50"/>
<path d="M16.5 15C16.5 15.84 17.16 16.5 18 16.5H19.02C19.86 16.5 20.52 15.84 20.52 15C20.52 14.16 19.86 13.5 19.02 13.5H18C17.16 13.5 16.5 14.16 16.5 15ZM17.52 15C17.52 14.7 17.76 14.52 18 14.52H19.02C19.32 14.52 19.5 14.76 19.5 15C19.5 15.3 19.26 15.48 19.02 15.48H18C17.7 15.48 17.52 15.3 17.52 15Z" fill="#333E50"/>
<path d="M11.52 15C11.52 15.84 12.18 16.5 13.02 16.5H14.04C14.88 16.5 15.54 15.84 15.54 15C15.54 14.16 14.88 13.5 14.04 13.5H13.02C12.18 13.5 11.52 14.16 11.52 15ZM12.48 15C12.48 14.7 12.72 14.52 12.96 14.52H13.98C14.28 14.52 14.46 14.76 14.46 15C14.46 15.3 14.22 15.48 13.98 15.48H12.96C12.72 15.48 12.48 15.3 12.48 15Z" fill="#333E50"/>
<path d="M7.97998 13.5C7.13998 13.5 6.47998 14.16 6.47998 15C6.47998 15.84 7.13998 16.5 7.97998 16.5H8.99998C9.83998 16.5 10.5 15.84 10.5 15C10.5 14.16 9.83998 13.5 8.99998 13.5H7.97998ZM7.97998 14.52H8.99998C9.29998 14.52 9.47998 14.76 9.47998 15C9.47998 15.3 9.23998 15.48 8.99998 15.48H7.97998C7.67998 15.48 7.49998 15.24 7.49998 15C7.49998 14.7 7.73998 14.52 7.97998 14.52Z" fill="#333E50"/>
<path d="M29.88 5.15994C29.94 4.91994 30 4.73994 30 4.49994C30 3.11994 28.8 1.97994 27.42 1.97994C27.12 1.97994 26.88 2.03994 26.58 2.09994C25.98 0.779941 24.66 -0.0600586 23.22 -0.0600586C21.84 -0.0600586 20.52 0.719941 19.92 1.97994C19.8 1.97994 19.68 1.97994 19.56 1.91994C18.18 1.91994 16.98 2.99994 16.98 4.43994C16.98 4.67994 17.04 4.85994 17.1 5.09994C17.16 5.33994 17.34 5.45994 17.58 5.45994H29.4C29.64 5.51994 29.88 5.33994 29.88 5.15994ZM28.98 4.49994H18C18 3.65994 18.72 2.99994 19.56 2.99994C19.74 2.99994 19.92 3.05994 20.04 3.05994C20.28 3.11994 20.58 2.99994 20.64 2.75994C21 1.67994 22.02 0.959941 23.16 1.01994C24.36 1.01994 25.44 1.79994 25.74 2.93994C25.74 2.99994 25.8 3.05994 25.8 3.05994C25.92 3.29994 26.28 3.35994 26.46 3.23994C26.82 3.05994 27.12 2.99994 27.42 2.99994C28.26 2.99994 28.98 3.65994 28.98 4.49994Z" fill="#333E50"/>
<path d="M2.58 26.5199C1.2 26.4599 0 27.5999 0 28.9799C0 29.2199 0.06 29.3999 0.12 29.6399C0.12 29.8199 0.36 29.9999 0.6 29.9999H12.48C12.72 29.9999 12.9 29.8199 12.96 29.6399C13.02 29.4599 13.02 29.2199 13.08 28.9799C13.08 27.5999 11.88 26.4599 10.5 26.4599C10.2 26.4599 9.96 26.5199 9.66 26.5799C9.3 25.7999 8.7 25.1999 7.98 24.8399C6.18 23.9399 3.96 24.6599 3 26.4599C2.82 26.5199 2.7 26.5199 2.58 26.5199ZM1.02 28.9799C1.02 28.1399 1.74 27.4799 2.58 27.4799C2.76 27.4799 2.94 27.5399 3.06 27.5399C3.3 27.5999 3.6 27.4799 3.66 27.2399C3.96 26.3999 4.62 25.7999 5.46 25.5599C6.9 25.1399 8.34 25.9799 8.76 27.4199C8.76 27.4799 8.82 27.5399 8.82 27.5399C8.94 27.7799 9.3 27.8399 9.48 27.7199C9.72 27.5399 10.02 27.4799 10.32 27.4799C11.16 27.4799 11.88 28.1399 11.88 28.9799H1.02Z" fill="#333E50"/>
</g>
<defs>
<clipPath id="clip0">
<rect width="30" height="30" fill="white"/>
</clipPath>
</defs>
</svg>
