<svg width="26" height="16" viewBox="0 0 26 16" fill="none" xmlns="http://www.w3.org/2000/svg">
<path d="M10.065 8.53667C10.1571 8.67156 10.3061 8.75657 10.4691 8.76631C10.48 8.7669 10.4906 8.7672 10.5012 8.7672C10.6527 8.7672 10.7976 8.70196 10.898 8.58714L14.8317 4.09112C15.0235 3.87181 15.0011 3.53856 14.7821 3.347C14.5628 3.15543 14.2295 3.17728 14.038 3.39659L10.5532 7.37931L9.53339 5.88132C9.36957 5.64047 9.04134 5.57819 8.80078 5.742C8.55992 5.90582 8.49764 6.23405 8.66146 6.47491L10.065 8.53667Z" fill="#ADB4BF"/>
<path d="M0.523349 5.93952L2.57625 5.95428V7.77134L0.995029 7.77252C0.703697 7.77252 0.467857 8.00895 0.468152 8.30028C0.468152 8.59132 0.704287 8.82716 0.99562 8.82716C0.99562 8.82716 0.99562 8.82716 0.995915 8.82716L2.57625 8.82627V13.3288C2.57625 13.6201 2.81239 13.8563 3.10372 13.8563H5.9034C6.03534 14.9853 6.9973 15.8643 8.16085 15.8643C9.32441 15.8643 10.2861 14.9853 10.418 13.8563H17.4923H19.2719C19.5104 14.8554 20.411 15.601 21.4827 15.601C22.5539 15.601 23.4536 14.8557 23.6921 13.8563H25.4716C25.763 13.8563 25.9988 13.6201 25.9988 13.3288V8.13026C25.9991 8.12348 26 8.11669 26 8.1096C26 8.1034 25.9994 8.0978 25.9988 8.0916V7.95818C25.9988 7.89118 25.9864 7.82506 25.9616 7.76307L24.677 4.53599C24.5971 4.33557 24.4028 4.20392 24.1871 4.20392H24.0418H23.4471V2.69944C23.4471 2.44383 23.2638 2.22511 23.0123 2.18024L18.0204 1.29119V0.727419C18.0204 0.436087 17.7843 0.199951 17.4929 0.199951H3.10401C2.81268 0.199951 2.57655 0.436087 2.57655 0.727419V4.89964L0.531318 4.88488C0.530138 4.88488 0.528662 4.88488 0.527481 4.88488C0.23792 4.88488 0.00207974 5.11865 1.35574e-05 5.40851C-0.00205263 5.69955 0.232312 5.93745 0.523349 5.93952ZM8.16115 14.8094C7.48905 14.8094 6.94239 14.2624 6.94239 13.5906C6.94239 13.5263 6.94741 13.4631 6.95686 13.4017C6.96188 13.371 6.96807 13.3403 6.97516 13.3102C6.97663 13.3043 6.97782 13.2987 6.97929 13.2928C6.98726 13.2615 6.99641 13.2308 7.00645 13.2007C7.00792 13.1966 7.0091 13.1924 7.01087 13.1883C7.02239 13.1561 7.03478 13.1245 7.04866 13.0935C7.04895 13.0929 7.04925 13.0924 7.04925 13.0918C7.22753 12.6986 7.60889 12.4188 8.04751 12.3772C8.04957 12.3772 8.05223 12.3769 8.0543 12.3769C8.08942 12.3736 8.12484 12.3718 8.16085 12.3718C8.19657 12.3718 8.23199 12.3736 8.26711 12.3769C8.26918 12.3769 8.27184 12.3772 8.2739 12.3772C8.71252 12.4188 9.09388 12.6986 9.27217 13.0918C9.27246 13.0921 9.27276 13.0927 9.27305 13.0935C9.28692 13.1242 9.29932 13.1561 9.31083 13.1883C9.31231 13.1927 9.31378 13.1966 9.31526 13.2007C9.32559 13.2308 9.33445 13.2615 9.34242 13.2928C9.34389 13.2987 9.34507 13.3043 9.34655 13.3102C9.35363 13.3403 9.35983 13.3707 9.36485 13.4017C9.37429 13.4631 9.37961 13.5263 9.37961 13.5906C9.37961 14.2624 8.83295 14.8094 8.16115 14.8094ZM21.4833 14.5458C20.8112 14.5458 20.2646 13.9997 20.2646 13.3285C20.2646 12.6564 20.8112 12.1097 21.4833 12.1097C22.1542 12.1097 22.7006 12.6564 22.7006 13.3285C22.7003 13.9997 22.1542 14.5458 21.4833 14.5458ZM23.6935 12.8013C23.6918 12.7936 23.6894 12.786 23.6873 12.778C23.6841 12.7653 23.6809 12.7526 23.6773 12.7399C23.6714 12.7184 23.6652 12.6968 23.6587 12.6753C23.6552 12.6629 23.6513 12.6505 23.6472 12.6381C23.6401 12.6157 23.6324 12.5938 23.6248 12.5717C23.6206 12.5608 23.6171 12.5495 23.613 12.5389C23.6029 12.5121 23.5923 12.4855 23.5817 12.4592C23.5793 12.4536 23.5772 12.448 23.5749 12.4424C23.5613 12.4102 23.5471 12.3786 23.5321 12.3476C23.5282 12.34 23.5244 12.3326 23.5206 12.3246C23.5091 12.3013 23.4973 12.2786 23.4852 12.2556C23.4793 12.2449 23.4733 12.2346 23.4674 12.224C23.4565 12.2045 23.4453 12.185 23.4338 12.1655C23.4273 12.1546 23.4205 12.1434 23.4137 12.1325C23.4022 12.1139 23.3904 12.0956 23.3783 12.0773C23.3712 12.0666 23.3641 12.056 23.3571 12.0457C23.3441 12.0268 23.3308 12.0082 23.3172 11.9896C23.3107 11.9807 23.3042 11.9713 23.2974 11.9624C23.28 11.9394 23.262 11.9167 23.2437 11.8943C23.2408 11.8901 23.2375 11.886 23.2343 11.8822C23.2124 11.8559 23.19 11.8302 23.167 11.8045C23.1608 11.7977 23.1543 11.7913 23.1481 11.7845C23.131 11.7662 23.1141 11.7482 23.0967 11.7304C23.0879 11.7219 23.079 11.7133 23.0704 11.7048C23.0548 11.6894 23.0392 11.6741 23.0226 11.6593C23.0132 11.6505 23.0034 11.6416 22.9937 11.633C22.9775 11.6186 22.9612 11.6044 22.9447 11.5905C22.935 11.5823 22.9252 11.574 22.9152 11.5657C22.8975 11.5513 22.8795 11.5374 22.8615 11.5232C22.8523 11.5164 22.8435 11.5094 22.8343 11.5026C22.8101 11.4846 22.7856 11.4672 22.7608 11.4503C22.7576 11.448 22.7543 11.4456 22.7511 11.4435C22.7227 11.4246 22.6938 11.4061 22.6649 11.388C22.6563 11.3827 22.6472 11.3777 22.6386 11.3724C22.6179 11.36 22.597 11.3479 22.576 11.3361C22.5648 11.3302 22.5536 11.324 22.5424 11.3184C22.5232 11.3081 22.5037 11.298 22.4839 11.2883C22.4718 11.2824 22.46 11.2765 22.4479 11.2709C22.4285 11.2617 22.4084 11.2526 22.3886 11.244C22.3765 11.2387 22.3647 11.2337 22.3526 11.2287C22.331 11.2195 22.3095 11.2109 22.2877 11.203C22.277 11.1988 22.2664 11.1947 22.2558 11.1906C22.2254 11.1797 22.195 11.1693 22.1643 11.1596C22.1619 11.1587 22.1596 11.1581 22.1569 11.1572C22.1235 11.1469 22.0899 11.1375 22.0562 11.1286C22.0459 11.1259 22.0353 11.1236 22.0247 11.1212C22.001 11.1153 21.9774 11.1097 21.9535 11.1047C21.9408 11.102 21.9275 11.0994 21.9146 11.097C21.8927 11.0929 21.8706 11.0887 21.8484 11.0852C21.8349 11.0828 21.821 11.0808 21.8074 11.079C21.7853 11.0758 21.7628 11.0728 21.7404 11.0704C21.7268 11.069 21.7133 11.0672 21.6997 11.066C21.6752 11.0637 21.651 11.0619 21.6265 11.0604C21.6147 11.0598 21.6032 11.0586 21.5916 11.058C21.5553 11.0563 21.519 11.0554 21.4824 11.0554C21.4458 11.0554 21.4092 11.0563 21.3732 11.058C21.3614 11.0586 21.3499 11.0595 21.3384 11.0604C21.3139 11.0619 21.2894 11.0637 21.2652 11.066C21.2516 11.0672 21.238 11.069 21.2245 11.0704C21.202 11.0728 21.1799 11.0758 21.1575 11.079C21.1436 11.0808 21.13 11.0828 21.1164 11.0852C21.0943 11.0887 21.0721 11.0929 21.0503 11.0973C21.0373 11.0997 21.0243 11.1023 21.0113 11.105C20.9874 11.11 20.9638 11.1156 20.9402 11.1215C20.9296 11.1239 20.9192 11.1265 20.9086 11.1289C20.8747 11.1377 20.841 11.1472 20.8077 11.1575C20.8053 11.1581 20.8032 11.159 20.8009 11.1599C20.7702 11.1696 20.7395 11.18 20.7091 11.1912C20.6985 11.195 20.6878 11.1991 20.6775 11.2033C20.6557 11.2115 20.6338 11.2201 20.6123 11.2292C20.6002 11.2343 20.5884 11.2396 20.5766 11.2446C20.5565 11.2535 20.5367 11.2626 20.5169 11.2715C20.5048 11.2774 20.4927 11.283 20.4809 11.2889C20.4611 11.2983 20.4417 11.3086 20.4225 11.319C20.4113 11.3249 20.4 11.3308 20.3888 11.3367C20.3679 11.3485 20.3466 11.3609 20.326 11.373C20.3174 11.378 20.3085 11.3833 20.3 11.3883C20.2708 11.4061 20.2418 11.4246 20.2135 11.4438C20.2103 11.4459 20.2073 11.4486 20.2041 11.4506C20.1793 11.4677 20.1545 11.4852 20.1303 11.5032C20.1211 11.5097 20.1123 11.5167 20.1034 11.5235C20.0851 11.5377 20.0671 11.5516 20.0494 11.5663C20.0394 11.5743 20.0296 11.5826 20.0199 11.5908C20.0033 11.6047 19.9871 11.6189 19.9706 11.6336C19.9608 11.6422 19.9514 11.651 19.9416 11.6596C19.9254 11.6747 19.9095 11.69 19.8938 11.7054C19.885 11.7139 19.8761 11.7225 19.8679 11.731C19.8501 11.7487 19.8333 11.7668 19.8165 11.7851C19.8103 11.7918 19.8035 11.7986 19.7973 11.8054C19.7743 11.8308 19.7522 11.8565 19.73 11.883C19.7268 11.8869 19.7238 11.891 19.7206 11.8951C19.7023 11.9176 19.6843 11.9403 19.6668 11.9636C19.6601 11.9725 19.6536 11.9819 19.6468 11.9911C19.6335 12.0097 19.6199 12.028 19.6072 12.0469C19.6001 12.0575 19.5931 12.0681 19.5857 12.0787C19.5736 12.097 19.5618 12.1153 19.5503 12.1336C19.5435 12.1449 19.5367 12.1558 19.5302 12.1667C19.5187 12.1859 19.5075 12.2054 19.4968 12.2249C19.4909 12.2355 19.4847 12.2458 19.4791 12.2567C19.467 12.2792 19.4555 12.3022 19.444 12.3252C19.4399 12.3329 19.436 12.3409 19.4322 12.3485C19.4171 12.3795 19.403 12.4111 19.3894 12.443C19.3867 12.4492 19.3844 12.4554 19.3817 12.4616C19.3711 12.4873 19.3608 12.5132 19.351 12.5395C19.3469 12.5507 19.343 12.5619 19.3389 12.5732C19.3315 12.5947 19.3239 12.6165 19.3168 12.6384C19.3126 12.6511 19.3088 12.6638 19.305 12.6762C19.2988 12.6974 19.2926 12.7187 19.2867 12.7399C19.2831 12.7529 19.2799 12.7656 19.2766 12.7789C19.2746 12.7866 19.2722 12.7942 19.2704 12.8019H18.0192V5.25856H20.2501V8.1099C20.2501 8.40123 20.4862 8.63737 20.7776 8.63737H24.9439V12.8013H23.6935ZM24.6762 7.58243H21.3059V5.25856H22.9196H23.6924L24.6762 7.58243ZM22.3921 3.14102V4.20392H20.7785H18.0204V2.36236L22.3921 3.14102ZM3.63119 1.25459H16.9655V1.73277V4.73139V12.8013H10.2932C10.0033 12.0209 9.29667 11.4421 8.4451 11.3355C8.43654 11.3343 8.42798 11.3334 8.41913 11.3323C8.40053 11.3302 8.38164 11.3284 8.36275 11.3267C8.34415 11.3249 8.32497 11.3234 8.30608 11.3222C8.2925 11.3213 8.27863 11.3205 8.26475 11.3199C8.23051 11.3184 8.19598 11.3172 8.16144 11.3172C8.12661 11.3172 8.09237 11.3184 8.05784 11.3199C8.04397 11.3205 8.03039 11.3213 8.01652 11.3222C7.99763 11.3234 7.97873 11.3249 7.95984 11.3267C7.94095 11.3281 7.92206 11.3302 7.90317 11.3323C7.89432 11.3331 7.88576 11.3343 7.8772 11.3355C7.02563 11.4421 6.319 12.0212 6.02914 12.8013H3.63148V8.82509L6.78359 8.82273C7.07493 8.82244 7.31077 8.5863 7.31047 8.29497C7.31047 8.00364 7.07434 7.7678 6.783 7.7678C6.783 7.7678 6.783 7.7678 6.78271 7.7678L3.63148 7.77016V5.96195L5.67818 5.97671C5.67937 5.97671 5.68084 5.97671 5.68202 5.97671C5.97158 5.97671 6.20742 5.74294 6.20949 5.45308C6.21156 5.16175 5.97719 4.92384 5.68586 4.92177L3.63148 4.90702V1.25459H3.63119Z" fill="#ADB4BF"/>
</svg>
