<svg width="30" height="30" viewBox="0 0 30 30" fill="none" xmlns="http://www.w3.org/2000/svg">
<path d="M2.36996 7.56006H19.17L21.45 29.0401L0.449951 29.28L2.36996 7.56006Z" fill="#C3E2FC"/>
<path d="M21.69 29.2799L19.98 7.3499C19.98 7.1999 19.95 7.10989 19.89 7.01989C19.8 6.92989 19.71 6.8999 19.56 6.8999H2.22001C1.98001 6.8999 1.8 7.0799 1.74 7.3499L0 29.3399C0 29.4599 0.0300073 29.5799 0.120007 29.6999C0.180007 29.7899 0.3 29.8499 0.45 29.8499H21.24C21.36 29.8499 21.48 29.8199 21.57 29.6999C21.63 29.5799 21.72 29.4599 21.69 29.2799ZM0.960004 28.8899L2.61 7.85991H19.08V8.00991L20.73 28.8899H0.960004Z" fill="#333E50"/>
<path d="M16.8899 11.16C16.9799 11.25 17.1 11.34 17.22 11.34C17.49 11.34 17.7 11.13 17.7 10.86V4.5C17.7 2.04 15.69 0 13.2 0C10.71 0 8.69995 2.01 8.69995 4.5V10.86C8.69995 11.13 8.90994 11.34 9.17994 11.34C9.44994 11.34 9.65995 11.13 9.65995 10.86V4.5C9.65995 2.52 11.25 0.9 13.26 0.9C15.24 0.9 16.86 2.49 16.86 4.5V10.86C16.8 10.98 16.8299 11.07 16.8899 11.16Z" fill="#333E50"/>
<path d="M14.0399 7.71C14.1299 7.8 14.2199 7.86 14.3399 7.86C14.6099 7.86 14.8199 7.64999 14.8199 7.37999V4.5C14.8199 2.04 12.8099 0 10.3199 0C7.85995 0 5.81995 2.01 5.81995 4.5V7.37999C5.81995 7.64999 6.02994 7.86 6.29994 7.86C6.56994 7.86 6.77993 7.64999 6.77993 7.37999V4.5C6.77993 2.52 8.36993 0.9 10.3799 0.9C12.3599 0.9 13.9799 2.49 13.9799 4.5V7.35C13.9199 7.5 13.9499 7.62 14.0399 7.71Z" fill="#333E50"/>
<path d="M27.72 29.0701H8.75996C7.76996 29.0701 6.95996 28.2601 6.95996 27.2701V17.4001C6.95996 16.4101 7.76996 15.6001 8.75996 15.6001H27.72C28.71 15.6001 29.52 16.4101 29.52 17.4001V27.2401C29.49 28.2901 28.71 29.0701 27.72 29.0701Z" fill="white"/>
<path d="M29.34 18.99H7.02002V21.12H29.34V18.99Z" fill="#C3E2FC"/>
<path d="M10.4101 27.3001C10.1401 27.3001 9.93005 27.0901 9.93005 26.8201C9.93005 26.5501 10.1401 26.3401 10.4101 26.3401H15.8401C16.1101 26.3401 16.3201 26.5501 16.3201 26.8201C16.3201 27.0901 16.1101 27.3001 15.8401 27.3001H10.4101Z" fill="#C3E2FC"/>
<path d="M10.4101 26.8201C10.1401 26.8201 9.93005 26.6101 9.93005 26.3401C9.93005 26.0701 10.1401 25.8601 10.4101 25.8601H15.8401C16.1101 25.8601 16.3201 26.0701 16.3201 26.3401C16.3201 26.6101 16.1101 26.8201 15.8401 26.8201H10.4101Z" fill="#333E50"/>
<path d="M25.95 24.0901H24.18C23.55 24.0901 23.04 24.6301 23.04 25.2301V26.1001C23.04 26.7301 23.58 27.2401 24.18 27.2401H25.95C26.58 27.2401 27.09 26.7001 27.09 26.1001V25.2301C27.06 24.6301 26.55 24.0901 25.95 24.0901Z" fill="#C3E2FC"/>
<path d="M30 19.92V17.37C30 16.23 29.07 15.24 27.8701 15.24H16.53H8.43005C7.29005 15.24 6.30005 16.17 6.30005 17.37V20.04V25.2V27.75C6.30005 28.89 7.23005 29.88 8.43005 29.88H8.52005L19.7701 29.85H27.84C28.9801 29.85 29.9701 28.92 29.9701 27.72V25.05L30 19.92ZM7.20005 19.11H29.0401V20.67H7.20005V19.11ZM8.43005 16.14H27.93C28.62 16.14 29.13 16.68 29.13 17.37V18.24H7.20005V17.37C7.20005 16.68 7.71005 16.14 8.43005 16.14ZM9.48005 29.88H17.67H9.48005ZM27.8701 28.95H8.43005C7.74005 28.95 7.23005 28.41 7.23005 27.75V21.54H29.07V27.72C29.07 28.38 28.5601 28.95 27.8701 28.95Z" fill="#333E50"/>
<path d="M24.18 26.5199H25.95C26.37 26.5199 26.7 26.1599 26.7 25.7699V24.8999C26.7 24.4799 26.34 24.1499 25.95 24.1499H24.18C23.76 24.1499 23.43 24.5099 23.43 24.8999V25.7399C23.37 26.1899 23.76 26.5199 24.18 26.5199Z" fill="#95CE5A"/>
<path d="M25.95 26.8199H24.18C23.55 26.8199 23.04 26.2799 23.04 25.6799V24.8099C23.04 24.1799 23.58 23.6699 24.18 23.6699H25.95C26.58 23.6699 27.09 24.2099 27.09 24.8099V25.6799C27.06 26.3099 26.55 26.8199 25.95 26.8199ZM24.18 24.4199C23.91 24.4199 23.7 24.6299 23.7 24.8999V25.7399C23.7 26.0099 23.91 26.2199 24.18 26.2199H25.95C26.22 26.2199 26.43 26.0099 26.43 25.7399V24.8699C26.43 24.5999 26.22 24.3899 25.95 24.3899H24.18V24.4199Z" fill="#333E50"/>
<path d="M10.4101 24.93C10.1401 24.93 9.93005 24.72 9.93005 24.45C9.93005 24.18 10.1401 23.97 10.4101 23.97H13.2301C13.5001 23.97 13.7101 24.18 13.7101 24.45C13.7101 24.72 13.5001 24.93 13.2301 24.93H10.4101Z" fill="#C3E2FC"/>
<path d="M10.4101 24.51C10.1401 24.51 9.93005 24.3001 9.93005 24.0301C9.93005 23.7601 10.1401 23.55 10.4101 23.55H13.2301C13.5001 23.55 13.7101 23.7601 13.7101 24.0301C13.7101 24.3001 13.5001 24.51 13.2301 24.51H10.4101Z" fill="#333E50"/>
</svg>
