<svg width="30" height="30" viewBox="0 0 30 30" fill="none" xmlns="http://www.w3.org/2000/svg">
<g clip-path="url(#clip0)">
<path d="M18.33 27.1799L14.94 28.0799L11.67 27.1799V12.6899H18.33V27.1799Z" fill="#C3E2FC"/>
<path d="M2.06995 4.62005L14.5199 0.300049L27.4199 4.38005L26.6699 5.28005L15.0899 9.18005L2.06995 4.62005Z" fill="#95CE5A"/>
<path d="M8.25 7.43988L8.34 10.9199L9.15 12.1799L11.13 12.8399L18.18 12.8999L20.22 12.2699L21.54 10.9199L21.42 7.37988L8.25 7.43988Z" fill="#95CE5A"/>
<path d="M17.31 20.4001H17.22C17.1 20.4001 16.98 20.4901 16.89 20.5801C16.8 20.6701 16.77 20.8201 16.77 20.9401C16.77 21.0601 16.86 21.1801 16.95 21.2701C17.04 21.3601 17.16 21.3901 17.25 21.3901H17.28H23.1C23.22 21.3901 23.34 21.3301 23.46 21.2401C23.55 21.1501 23.61 21.0301 23.61 20.8801C23.61 20.7601 23.55 20.6101 23.46 20.5201C23.34 20.4601 23.22 20.4001 23.1 20.4001H17.31Z" fill="#333E50"/>
<path d="M23.1 24.6601C23.22 24.6601 23.34 24.6001 23.46 24.5101C23.55 24.4201 23.61 24.3001 23.61 24.1501C23.61 24.0301 23.55 23.8801 23.46 23.7901C23.37 23.7001 23.25 23.6401 23.13 23.6401H17.34C17.31 23.6401 17.31 23.6401 17.31 23.6401C17.28 23.6401 17.28 23.6401 17.25 23.6401C17.13 23.6401 17.01 23.7301 16.92 23.8201C16.83 23.9101 16.8 24.0601 16.8 24.1801C16.8 24.3001 16.89 24.4201 16.98 24.5101C17.07 24.6001 17.19 24.6301 17.28 24.6301H17.31H23.1V24.6601Z" fill="#333E50"/>
<path d="M17.25 14.9101C17.28 14.9101 17.28 14.9101 17.31 14.9101H23.1C23.22 14.9101 23.34 14.8501 23.46 14.7601C23.55 14.6701 23.61 14.5501 23.61 14.4001C23.61 14.2801 23.55 14.1301 23.46 14.0401C23.37 13.9501 23.25 13.8901 23.1 13.8901H17.34C17.31 13.8901 17.28 13.8901 17.25 13.8901H17.19C16.92 13.9201 16.74 14.1901 16.77 14.4601C16.8 14.7301 17.01 14.9101 17.25 14.9101Z" fill="#333E50"/>
<path d="M17.25 18.1501C17.28 18.1501 17.28 18.1501 17.31 18.1501H23.1C23.22 18.1501 23.34 18.0901 23.46 18.0001C23.55 17.9101 23.61 17.7901 23.61 17.6401C23.61 17.5201 23.55 17.3701 23.46 17.2801C23.37 17.1901 23.25 17.1301 23.13 17.1301H17.37C17.34 17.1301 17.28 17.1301 17.28 17.1301H17.22C16.95 17.1601 16.77 17.4301 16.8 17.7001C16.8 17.9701 17.01 18.1501 17.25 18.1501Z" fill="#333E50"/>
<path d="M12.48 23.6702H6.69002C6.66002 23.6702 6.66002 23.6702 6.66002 23.6702C6.63002 23.6702 6.63002 23.6702 6.60002 23.6702C6.48002 23.6702 6.36002 23.7602 6.27002 23.8502C6.18002 23.9402 6.15002 24.0902 6.15002 24.2102C6.15002 24.3302 6.24002 24.4502 6.33002 24.5402C6.42002 24.6302 6.54002 24.6602 6.63002 24.6602H6.66002H12.45C12.57 24.6602 12.69 24.6002 12.81 24.5102C12.9 24.4202 12.96 24.3002 12.96 24.1502C12.96 24.0302 12.9 23.8802 12.81 23.7902C12.72 23.7302 12.6 23.6702 12.48 23.6702Z" fill="#333E50"/>
<path d="M12.48 20.4001H6.69002H6.60002C6.48002 20.4001 6.36002 20.4901 6.27002 20.5801C6.18002 20.6701 6.15002 20.8201 6.15002 20.9401C6.18002 21.1801 6.39002 21.3901 6.63002 21.3901H6.66002H12.45C12.57 21.3901 12.69 21.3301 12.81 21.2401C12.9 21.1501 12.96 21.0301 12.96 20.8801C12.96 20.7601 12.9 20.6101 12.81 20.5201C12.72 20.4601 12.6 20.4001 12.48 20.4001Z" fill="#333E50"/>
<path d="M28.02 8.7001V5.2201C28.14 5.1001 28.2 4.9201 28.2 4.7701C28.2 4.5601 28.11 4.3501 27.93 4.2001C27.78 4.0801 27.6 4.0201 27.48 3.9601L15.96 0.0300976C15.63 -0.0899023 15.24 -0.149902 14.82 -0.149902C14.4 -0.149902 14.01 -0.0899023 13.68 0.0300976L2.22 3.9601C2.07 4.0201 1.92 4.0801 1.77 4.2001C1.59 4.3501 1.5 4.5601 1.5 4.7701C1.5 4.9801 1.59 5.1901 1.77 5.3401C1.92 5.4601 2.1 5.5201 2.22 5.5801L7.83 7.5001V10.1401H4.68H4.62C4.38 10.1701 4.17 10.3801 4.2 10.6501V27.3901C4.2 27.6601 4.44 27.9001 4.71 27.9001H12.51C13.47 27.9001 14.28 28.6801 14.4 29.7301C14.43 29.8201 14.46 29.9101 14.52 29.9701L14.55 30.0001C14.64 30.1201 14.76 30.1501 14.91 30.1501C14.97 30.1501 15.03 30.1501 15.09 30.1201C15.3 30.0601 15.42 29.8801 15.45 29.7001C15.57 28.6501 16.38 27.8701 17.34 27.8701H25.14C25.41 27.8701 25.65 27.6301 25.65 27.3601V10.6201C25.65 10.3501 25.41 10.1101 25.14 10.1101H21.96V7.4101L27 5.7001V8.7001C26.67 8.8801 26.46 9.2101 26.46 9.6001C26.46 10.1701 26.94 10.6501 27.51 10.6501C28.08 10.6501 28.53 10.1701 28.53 9.6001C28.53 9.2101 28.32 8.8801 28.02 8.7001ZM27.54 9.6001C27.54 9.6301 27.54 9.6301 27.51 9.6301C27.48 9.6301 27.48 9.6301 27.48 9.6001C27.48 9.5701 27.51 9.5701 27.51 9.5701C27.54 9.5401 27.54 9.5701 27.54 9.6001ZM15.39 13.2601H17.7C18.78 13.2601 19.8 13.0501 20.58 12.6601C21.33 12.2701 21.81 11.7301 21.93 11.1301H24.6V26.8801H17.31C16.62 26.8801 15.93 27.1801 15.39 27.6901V13.2601ZM12.09 13.2601H14.4V27.7201C13.86 27.1801 13.2 26.8801 12.48 26.8801H5.19V11.1301H7.86C7.98 11.7301 8.43 12.2701 9.18 12.6601C9.96 13.0501 11.01 13.2601 12.09 13.2601ZM8.82 10.8601V7.8301L13.68 9.5101C14.37 9.7501 15.27 9.7501 15.93 9.5101L20.94 7.8001V10.8601C20.94 11.1601 20.64 11.4901 20.1 11.7601C19.47 12.0901 18.6 12.2701 17.67 12.2701H12.09C11.16 12.2701 10.29 12.0901 9.66 11.7601C9.12 11.4901 8.82 11.1601 8.82 10.8601ZM14.04 8.5501H14.01L2.91 4.7701L14.01 0.990098C14.19 0.930098 14.49 0.900098 14.82 0.900098C15.15 0.900098 15.45 0.930098 15.63 0.990098L26.73 4.7701L15.63 8.5501C15.24 8.7001 14.43 8.7001 14.04 8.5501Z" fill="#333E50"/>
<path d="M6.59995 13.9202C6.32995 13.9502 6.11995 14.2202 6.14995 14.4902C6.17995 14.7302 6.41995 14.9402 6.62995 14.9402C6.65995 14.9402 6.65995 14.9402 6.68995 14.9402H12.48C12.6 14.9402 12.72 14.8802 12.84 14.7902C12.93 14.7002 12.99 14.5802 12.99 14.4302C12.99 14.3102 12.93 14.1602 12.84 14.0702C12.75 13.9802 12.6 13.9202 12.51 13.9202H6.74995C6.68995 13.9202 6.62995 13.9202 6.59995 13.9202Z" fill="#333E50"/>
<path d="M12.48 17.1602H6.71995C6.68995 17.1602 6.62995 17.1602 6.59995 17.1602C6.32995 17.1902 6.11995 17.4602 6.14995 17.7302C6.17995 17.9702 6.41995 18.1802 6.62995 18.1802C6.65995 18.1802 6.65995 18.1802 6.68995 18.1802H12.48C12.6 18.1802 12.72 18.1202 12.84 18.0302C12.93 17.9402 12.99 17.8202 12.99 17.6702C12.99 17.5502 12.93 17.4002 12.84 17.3102C12.72 17.2202 12.6 17.1602 12.48 17.1602Z" fill="#333E50"/>
<path d="M27.48 9.98996C27.6954 9.98996 27.87 9.81535 27.87 9.59996C27.87 9.38457 27.6954 9.20996 27.48 9.20996C27.2646 9.20996 27.09 9.38457 27.09 9.59996C27.09 9.81535 27.2646 9.98996 27.48 9.98996Z" fill="#95CE5A"/>
</g>
<defs>
<clipPath id="clip0">
<rect width="30" height="30" fill="white"/>
</clipPath>
</defs>
</svg>
